# xmcd CD database file
#
# Track frame offsets:
#	150
#	29075
#	69990
#	102879
#	135357
#	157917
#	194475
#	216910
#	239835
#	271702
#
# Disc length: 4013 seconds
#
# Revision: 0
# Processed by: cddbd v1.5.2PL0 Copyright (c) Steve Scherf et al.
# Submitted via: CDex 1.70beta2
#
DISCID=8d0fab0a
DTITLE=David Murray - Solo Live
DYEAR=1980
DGENRE=Jazz
TTITLE0=Both Feet on the Ground
TTITLE1=Bc
TTITLE2=Rag Tag
TTITLE3=Sweet Lovely
TTITLE4=Flowers for Albert
TTITLE5=Body and Soul
TTITLE6=We See
TTITLE7=Untitled
TTITLE8=Solo #1
TTITLE9=Solo #2
EXTD=YEAR: 1980
EXTT0=
EXTT1=
EXTT2=
EXTT3=
EXTT4=
EXTT5=
EXTT6=
EXTT7=
EXTT8=
EXTT9=
PLAYORDER=
